<svg width="18" height="18" viewBox="0 0 18 18" fill="none" xmlns="http://www.w3.org/2000/svg">
<path fill-rule="evenodd" clip-rule="evenodd" d="M13.2562 15.1009C11.8786 16.1039 10.1823 16.6957 8.34783 16.6957C3.73745 16.6957 0 12.9582 0 8.34783C0 3.73745 3.73745 0 8.34783 0C12.9582 0 16.6957 3.73745 16.6957 8.34783C16.6957 10.1823 16.1039 11.8786 15.1009 13.2562L17.618 15.7733C18.1273 16.2827 18.1273 17.1086 17.618 17.618C17.1086 18.1273 16.2827 18.1273 15.7733 17.618L13.2562 15.1009ZM14.087 8.34783C14.087 11.5175 11.5175 14.087 8.34783 14.087C5.17819 14.087 2.6087 11.5175 2.6087 8.34783C2.6087 5.17819 5.17819 2.6087 8.34783 2.6087C11.5175 2.6087 14.087 5.17819 14.087 8.34783Z" fill="white"/>
</svg>
